<svg xmlns="http://www.w3.org/2000/svg" width="75.777" height="40.722" viewBox="0 0 75.777 40.722" fill="none">
  <path d="M 27.198 5.564 C 26.149 3.392 24.276 1.219 21.954 0.395 C 16.035 -1.703 11.315 5.04 8.768 9.31 C 5.247 15.004 -9.362 45.121 9.292 40.176 C 12.739 39.277 16.26 37.629 19.182 35.606 C 21.429 34.108 23.452 32.16 25.4 30.362 C 28.846 27.216 34.165 22.945 35.589 18.375 C 37.761 11.633 27.872 13.955 25.1 16.053 C 21.504 18.75 20.006 22.72 19.481 27.141 C 19.182 29.763 18.582 34.258 21.129 36.131 C 22.778 37.33 24.426 36.73 25.999 35.906 C 30.794 33.584 35.514 31.186 40.758 30.062 C 46.527 28.789 51.022 31.186 56.491 32.535 C 62.784 34.108 68.927 33.359 74.996 31.411 C 76.344 30.961 75.82 28.789 74.396 29.238 C 69.377 30.812 64.283 31.711 59.038 30.812 C 55.817 30.212 52.745 28.939 49.598 28.04 C 42.556 26.092 35.439 28.939 29.071 31.935 C 27.572 32.61 25.325 34.408 23.602 34.558 C 20.53 34.782 21.429 29.313 21.654 27.515 C 22.178 23.245 23.677 19.349 27.647 17.102 C 29.071 16.277 34.09 14.554 33.491 17.701 C 33.116 19.724 30.644 21.896 29.371 23.32 C 27.722 25.118 25.999 26.841 24.276 28.489 C 22.403 30.212 19.931 32.535 18.133 33.733 C 16.709 34.707 14.087 36.056 12.139 36.88 C 9.742 37.929 5.022 39.877 2.849 37.479 C 1.351 35.831 1.875 32.685 2.325 30.737 C 3.224 26.017 5.172 21.447 7.195 17.102 C 9.143 12.906 14.237 0.844 20.755 2.418 C 22.778 2.867 24.426 4.89 25.25 6.763 C 25.849 8.036 27.797 6.913 27.198 5.564 Z" fill="currentColor" fill-rule="nonzero"></path>
</svg>
